<?xml version="1.0" encoding="UTF-8"?>
<svg width="155px" height="40px" viewBox="0 0 155 40" version="1.1" xmlns="http://www.w3.org/2000/svg" xmlns:xlink="http://www.w3.org/1999/xlink">
    <g fill="#FFFFFF">
        <path d="M0,2.84217094e-14 L30,2.84217094e-14 L9.21875,35 L30,35 L30,40 L0,40 L20.78125,5 L0,5 L0,2.84217094e-14 Z M100,25 C100,33.2842712 93.2842712,40 85,40 C76.7157288,40 70,33.2842712 70,25 C70,16.7157288 76.7157288,10 85,10 C88.8417722,10 92.3462175,11.4442678 95,13.8194675 L95,2.84217094e-14 L100,2.84217094e-14 L100,25 Z M85,35 C90.5228475,35 95,30.5228475 95,25 C95,19.4771525 90.5228475,15 85,15 C79.4771525,15 75,19.4771525 75,25 C75,30.5228475 79.4771525,35 85,35 Z M145,25 C145,33.2842712 138.284271,40 130,40 C121.715729,40 115,33.2842712 115,25 L115,2.84217094e-14 L120,2.84217094e-14 L120,25 C120,30.5228475 124.477153,35 130,35 C135.522847,35 140,30.5228475 140,25 L140,2.84217094e-14 L145,2.84217094e-14 L145,25 Z M36.0983496,30.6445143 C33.9016504,25.2274757 35,18.7867966 39.3933983,14.3933983 C45.2512627,8.53553391 54.7487373,8.53553391 60.6066017,14.3933983 C61.2089015,14.9956981 61.7492734,15.6364749 62.2277175,16.3078164 L44.9200816,33.6154523 C46.4088648,34.4951765 48.1454785,35 50,35 C55.5228475,35 60,30.5228475 60,25 L65,25 C65,33.2842712 58.2842712,40 50,40 C46.7604239,40 43.7607113,38.9730226 41.3086641,37.2268698 C40.6383835,36.7506336 39.9993417,36.2119735 39.3985362,35.6117372 C38.0389371,34.2534461 36.9387732,32.6355161 36.1787744,30.8386769 C36.1115086,30.6769643 36.1247858,30.7093775 36.1381813,30.7417533 L36.0983496,30.6445143 Z M41.3845477,30.0799184 L55.0805313,16.3839348 C51.2457675,14.1190993 46.2237659,14.6340984 42.9289322,17.9289322 C40.9763107,19.8815536 40,22.4407768 40,25 C40,25.0537352 40.0004238,25.1073713 40.0012683,25.1609053 C40.0212578,26.409743 40.2737581,27.6555571 40.7587875,28.8278355 C40.9385891,29.2614287 41.1480176,29.6796314 41.3845477,30.0799184 L41.3845477,30.0799184 Z M155,40 L150,40 L150,0 L155,0 L155,40 Z"></path>
    </g>
</svg>
