<?xml version="1.0" encoding="UTF-8"?>
<svg width="128px" height="128px" viewBox="0 0 128 128" version="1.1" xmlns="http://www.w3.org/2000/svg" xmlns:xlink="http://www.w3.org/1999/xlink">
    <defs>
        <linearGradient x1="50%" y1="0%" x2="50%" y2="100%" id="linearGradient-1">
            <stop stop-color="#FFDF1E" offset="0%"></stop>
            <stop stop-color="#FF7A31" offset="55.0807644%"></stop>
            <stop stop-color="#FF4AB0" offset="100%"></stop>
        </linearGradient>
        <linearGradient x1="50%" y1="0%" x2="50%" y2="100%" id="linearGradient-2">
            <stop stop-color="#2CFFA4" offset="0%"></stop>
            <stop stop-color="#46D7FF" offset="51.5070735%"></stop>
            <stop stop-color="#974BFF" offset="100%"></stop>
        </linearGradient>
    </defs>
    <g>
        <path d="M73.7139271,94.8309575 L54.48568,83.7178295 L88.9689606,63.7879257 L9,17.5689999 L9,6.17194951 C9,2.85824101 11.6862915,0.171949513 15,0.171949513 C16.0539494,0.171949513 17.0893047,0.449571037 18.0018627,0.976872945 L118.079972,58.8048446 C120.949134,60.4627275 121.931069,64.1326222 120.273186,67.0017838 C119.746979,67.9124471 118.990635,68.6687906 118.079972,69.1949977 L73.7139271,94.8309575 L73.7139271,94.8309575 Z" fill="url(#linearGradient-1)"></path>
        <path d="M58.3530993,103.70688 L18.0018627,127.022969 C15.1327011,128.680852 11.4628064,127.698917 9.80492343,124.829755 C9.27762152,123.917197 9,122.881842 9,121.827893 L9,35.3236264 L58.2488444,63.7874128 L23.7663926,83.7168377 L58.3530993,103.70688 Z" fill="url(#linearGradient-2)"></path>
    </g>
</svg>
